<svg viewBox="0 0 32 31.347" xmlns="http://www.w3.org/2000/svg"><path d="M16.013 0C7.158 0 0 7.211 0 16.132 0 23.263 4.587 29.3 10.95 31.436c.795.16 1.086-.347 1.086-.774 0-.374-.026-1.656-.026-2.992-4.454.962-5.382-1.923-5.382-1.923-.716-1.87-1.777-2.35-1.777-2.35-1.458-.988.107-.988.107-.988 1.617.107 2.466 1.656 2.466 1.656 1.43 2.457 3.737 1.763 4.665 1.335.133-1.042.557-1.763 1.008-2.163-3.553-.374-7.29-1.763-7.29-7.96 0-1.762.635-3.205 1.643-4.326-.16-.4-.716-2.057.159-4.274 0 0 1.352-.427 4.4 1.656a15.4 15.4 0 0 1 4.004-.534 15.4 15.4 0 0 1 4.003.534c3.05-2.083 4.401-1.656 4.401-1.656.876 2.217.318 3.873.16 4.274 1.034 1.121 1.643 2.564 1.643 4.326 0 6.197-3.738 7.559-7.317 7.96.583.507 1.087 1.469 1.087 2.991 0 2.163-.026 3.9-.026 4.434 0 .427.291.935 1.087.775A16.12 16.12 0 0 0 32 16.132C32.026 7.212 24.842 0 16.013 0" fill="#24292f"/></svg>