<svg viewBox="0 0 30.031 32" xmlns="http://www.w3.org/2000/svg"><path d="M29.91 7.084C29.446 3.646 26.45.937 22.897.412c-.6-.09-2.87-.412-8.13-.412h-.04c-5.261 0-6.39.323-6.99.412C4.286.922 1.133 3.357.368 6.836 0 8.549-.04 10.449.028 12.191c.098 2.499.117 4.993.344 7.481.157 1.654.43 3.293.819 4.908.727 2.981 3.672 5.463 6.556 6.475a17.584 17.584 0 009.592.506c.35-.081.696-.176 1.037-.284.774-.245 1.68-.52 2.347-1.003a.075.075 0 00.03-.058v-2.412a.072.072 0 00-.056-.068.07.07 0 00-.031 0 26.587 26.587 0 01-6.225.727c-3.607 0-4.577-1.712-4.855-2.424a7.516 7.516 0 01-.422-1.912.07.07 0 01.055-.071.071.071 0 01.032 0c2.005.484 4.06.728 6.123.727.496 0 .99 0 1.487-.013 2.074-.058 4.26-.164 6.301-.563.051-.01.102-.019.146-.032 3.219-.618 6.282-2.558 6.594-7.471.011-.193.04-2.026.04-2.227.002-.682.22-4.839-.032-7.393z" fill="url(#a)"/><path d="M24.81 10.947v8.542h-3.386V11.2c0-1.745-.727-2.635-2.206-2.635-1.627 0-2.441 1.053-2.441 3.132v4.538h-3.365v-4.538c0-2.08-.816-3.132-2.442-3.132-1.471 0-2.206.89-2.206 2.635v8.29H5.381v-8.542c0-1.745.445-3.131 1.337-4.16.919-1.025 2.125-1.551 3.622-1.551 1.732 0 3.041.666 3.914 1.997l.843 1.413.843-1.413c.873-1.331 2.182-1.997 3.912-1.997 1.495 0 2.701.526 3.623 1.552.89 1.027 1.335 2.411 1.335 4.158z" fill="#fff"/><defs><linearGradient id="a" x1="0" y1="0" x2="0" y2="32" gradientUnits="userSpaceOnUse"><stop stop-color="#6364FF"/><stop offset="1" stop-color="#563ACC"/></linearGradient></defs></svg>