<svg viewBox="0 0 32 26" xmlns="http://www.w3.org/2000/svg"><path d="M28.724 6.473c.02.282.02.564.02.849 0 8.675-6.605 18.68-18.68 18.68v-.005A18.6 18.6 0 0 1 0 23.054a13.18 13.18 0 0 0 9.716-2.72 6.57 6.57 0 0 1-6.133-4.56 6.54 6.54 0 0 0 2.964-.114A6.566 6.566 0 0 1 1.28 9.225v-.083a6.524 6.523 0 0 0 2.98.822 6.573 6.573 0 0 1-2.033-8.766 18.63 18.63 0 0 0 13.53 6.859 6.57 6.57 0 0 1 1.9-6.273 6.57 6.57 0 0 1 9.289.285c1.47-.29 2.88-.83 4.169-1.594a6.6 6.6 0 0 1-2.886 3.63A13 13 0 0 0 32 3.073a13.3 13.3 0 0 1-3.276 3.401z" fill="#1d9bf0"/></svg>