<svg viewBox="0 0 32 26" xmlns="http://www.w3.org/2000/svg"><path d="M28.724 6.473c.02.282.02.564.02.849 0 8.675-6.605 18.68-18.68 18.68v-.005A18.586 18.586 0 010 23.054a13.183 13.183 0 009.716-2.72 6.573 6.573 0 01-6.133-4.56 6.544 6.544 0 002.964-.114A6.566 6.566 0 011.28 9.225v-.083a6.524 6.523 0 002.98.822 6.573 6.573 0 01-2.033-8.766 18.634 18.634 0 0013.53 6.859 6.57 6.57 0 011.9-6.273 6.572 6.572 0 019.289.285c1.47-.29 2.88-.83 4.169-1.594a6.59 6.59 0 01-2.886 3.63A13.057 13.057 0 0032 3.073a13.337 13.337 0 01-3.276 3.401z" fill="#1d9bf0"/></svg>