<svg width="31.999" height="22.545" xmlns="http://www.w3.org/2000/svg"><defs><clipPath clipPathUnits="userSpaceOnUse" id="prefix__a"><path d="M0 192h192V0H0z" transform="translate(-180.322 -138.637)"/></clipPath><clipPath clipPathUnits="userSpaceOnUse" id="prefix__b"><path d="M0 192h192V0H0z" transform="translate(-78 -69.831)"/></clipPath></defs><path clip-path="url(#prefix__a)" d="M-84.32 19.363s-55.037-.004-68.762-3.706c-7.573-2.037-13.542-8.03-15.566-15.652-3.677-13.814-3.674-42.647-3.674-42.647s-.003-28.82 3.674-42.636c2.024-7.621 7.993-13.625 15.566-15.663 13.725-3.7 68.761-3.695 68.761-3.695s55.038-.006 68.762 3.695c7.574 2.038 13.531 8.042 15.555 15.663 3.678 13.816 3.685 42.636 3.685 42.636S3.674-13.809-.004.005c-2.024 7.622-7.98 13.615-15.555 15.652-13.724 3.702-68.762 3.706-68.762 3.706z" transform="matrix(.18182 0 0 -.18182 31.33 3.52)" fill="red icc-color(sRGB-IEC61966-2,.1,1,0,0)"/><path d="M0 0l46 26.168-46 26.17z" transform="matrix(.18182 0 0 -.18182 12.727 16.03)" clip-path="url(#prefix__b)" fill="#fff icc-color(sRGB-IEC61966-2,.1,1,1,1)"/></svg>