 	<svg viewBox="0 0 16 15.733" xmlns="http://www.w3.org/2000/svg"><path d="M8.006 0C3.58 0 0 3.605 0 8.066a8.06 8.06 0 005.475 7.651c.397.08.543-.173.543-.387 0-.187-.013-.827-.013-1.495-2.227.48-2.691-.962-2.691-.962-.358-.935-.889-1.175-.889-1.175-.729-.494.054-.494.054-.494.808.054 1.233.828 1.233.828.715 1.229 1.868.882 2.332.668.067-.521.279-.882.504-1.082-1.776-.187-3.645-.881-3.645-3.98 0-.88.318-1.602.822-2.163-.08-.2-.358-1.028.08-2.137 0 0 .675-.213 2.2.828A7.7 7.7 0 018.005 3.9a7.7 7.7 0 012.002.267c1.525-1.041 2.2-.828 2.2-.828.438 1.109.16 1.937.08 2.137.517.56.822 1.282.822 2.163 0 3.099-1.87 3.78-3.659 3.98.292.254.544.735.544 1.496 0 1.081-.013 1.95-.013 2.216 0 .214.145.468.543.388A8.06 8.06 0 0016 8.066C16.012 3.606 12.421 0 8.006 0" fill="#24292f"/></svg>