<svg viewBox="0 0 16 13" xmlns="http://www.w3.org/2000/svg"><path d="M14.361 3.236c.01.14.01.282.01.424 0 4.338-3.302 9.34-9.34 9.34v-.002A9.3 9.3 0 010 11.526a6.59 6.59 0 004.858-1.36 3.285 3.285 0 01-3.067-2.28 3.27 3.27 0 001.482-.057A3.283 3.283 0 01.64 4.612V4.57a3.262 3.261 0 001.49.411A3.286 3.286 0 011.113.598a9.315 9.315 0 006.765 3.43A3.285 3.285 0 018.828.89a3.285 3.285 0 014.644.143 6.591 6.591 0 002.085-.797 3.3 3.3 0 01-1.443 1.815 6.5 6.5 0 001.885-.516 6.65 6.65 0 01-1.638 1.7z" fill="#1d9bf0"/></svg>